<svg preserveAspectRatio="none" width="100%" height="100%" overflow="visible" style="display: block;" viewBox="0 0 32 32" fill="none" xmlns="http://www.w3.org/2000/svg">
<g id="fi_10299349">
<path id="Vector" d="M2.27475 6.27411L0 5.12786L2.27475 3.98161C2.36331 3.9373 2.43419 3.86642 2.4785 3.77967L3.62475 1.50317L4.771 3.77967C4.81531 3.86649 4.88613 3.93736 4.97475 3.98161L7.2495 5.12786L4.97475 6.27411C4.88619 6.31842 4.81531 6.38924 4.771 6.47786L3.62475 8.75261L2.4785 6.47786C2.43419 6.38924 2.36331 6.31836 2.27475 6.27411ZM28.7445 23.3808L28.0004 21.8005L27.2564 23.3808C27.1961 23.5084 27.0987 23.6111 26.9818 23.6749L25.5042 24.4703L26.98 25.264C27.0987 25.3277 27.1961 25.4305 27.2564 25.558L28.0004 27.1365L28.7445 25.558C28.8047 25.4305 28.9004 25.3277 29.0209 25.264L30.4966 24.4703L29.0191 23.6749C28.9004 23.6111 28.8047 23.5084 28.7445 23.3808ZM30.5143 10.1185C31.4178 11.2505 31.9582 12.6855 31.9582 14.2428C31.9582 17.8941 28.9889 20.8651 25.3376 20.8651C25.0736 20.8651 24.8133 20.8492 24.5563 20.819C24.2481 20.7819 23.9451 20.7252 23.651 20.6472C23.1266 27.2819 21.8386 30.3751 20.7774 30.4938C20.3505 30.5416 18.7826 30.104 16.4813 22.5109C16.3378 22.0325 15.9073 21.7119 15.4076 21.7119C14.908 21.7119 14.4775 22.0325 14.334 22.5091C12.0202 30.1395 10.4524 30.5487 10.0254 30.492C8.43275 30.2741 7.63375 24.7272 7.44419 23.3471C7.41938 23.1593 7.39456 22.9662 7.37156 22.7695C7.06506 22.8457 6.76387 22.9113 6.47156 22.9697C5.70975 23.115 4.99581 23.1983 4.34919 23.1983C3.86731 23.1983 3.42263 23.1522 3.02931 23.0512C2.23206 22.8475 1.651 22.4365 1.302 21.8306C0.449875 20.3584 1.63331 17.9596 4.63263 15.0559C4.77969 15.334 4.93381 15.6087 5.10031 15.8815C2.659 18.2874 1.51281 20.3672 2.09562 21.3735C2.32062 21.7632 2.69975 22.0219 3.25606 22.1636C4.01606 22.3585 5.06488 22.3213 6.37231 22.0609C6.65931 22.0042 6.95875 21.9369 7.27231 21.8571C8.64356 21.5117 10.2486 20.9589 12.061 20.2042C14.9469 19.0012 17.7744 17.5202 19.1864 16.6999C19.0695 16.4112 18.9739 16.1135 18.8994 15.807C18.8463 15.8389 18.7896 15.8726 18.7276 15.908C17.5317 16.6025 14.7078 18.1102 11.7084 19.3592C10.0094 20.0678 8.48944 20.5975 7.18725 20.9342C7.08806 19.7667 7.01538 18.4947 6.97463 17.1217C6.97288 17.026 6.93919 16.9321 6.87894 16.8559C6.66281 16.576 6.46081 16.2979 6.27481 16.0215C5.6955 15.1605 5.25256 14.3207 4.92131 13.5253C4.36681 12.1984 4.11344 10.9954 4.01069 10.0157C4.01956 10.0034 4.02663 9.99092 4.03375 9.97674L5.52012 7.02342L8.47344 5.53705C8.62756 5.45911 8.725 5.30142 8.725 5.1278C8.725 4.95592 8.62756 4.79649 8.47344 4.71855L5.96325 3.45542C6.89156 2.56961 8.06619 2.11961 9.39312 2.14267C11.1399 2.17455 13.1206 3.04442 15.1208 4.65661C15.1261 4.66017 15.1314 4.66367 15.1367 4.66724C15.142 4.67255 15.1473 4.67611 15.1526 4.67961C16.9933 6.03842 18.9474 6.77367 21.1265 6.92955L21.1921 6.01717C19.3797 5.88605 17.7339 5.31736 16.1784 4.28099C18.8925 2.25074 21.4879 1.63949 23.5341 2.56074C23.9682 2.75736 24.3668 3.0178 24.7246 3.33492C25.2774 3.82211 25.7362 4.44399 26.0853 5.17211C26.452 5.93567 26.6983 6.81792 26.8045 7.78349C27.1287 7.85786 27.4458 7.95536 27.7506 8.07405C27.9703 8.16086 28.1864 8.26005 28.3954 8.36992C28.6718 8.51342 28.934 8.67642 29.1856 8.85536C30.7658 7.02705 31.4036 5.53005 30.9359 4.72392C30.4806 3.93555 28.8702 3.7283 26.5689 4.14286C26.3917 3.85055 26.1968 3.57592 25.9842 3.32261C29.0279 2.69899 31.0103 3.02499 31.7296 4.26511C32.4188 5.45917 31.7846 7.24317 29.8924 9.43999C30.1139 9.6508 30.323 9.87755 30.5143 10.1185ZM31.0423 14.2428C31.0423 12.9566 30.6154 11.7679 29.8943 10.8112C29.338 10.0724 28.6064 9.47361 27.7613 9.07499C27.0243 8.72955 26.2041 8.53467 25.3377 8.53467C22.1896 8.53467 19.6278 11.0964 19.6278 14.2428C19.6278 14.606 19.6633 14.9603 19.7288 15.304C19.9042 16.2412 20.3117 17.0986 20.8874 17.8144C21.9344 19.1147 23.5413 19.9492 25.3377 19.9492C28.4841 19.9492 31.0423 17.3892 31.0423 14.2428ZM28.9854 12.7316H26.8489V10.5915C26.8489 10.3399 26.6434 10.1344 26.3918 10.1344H24.2818C24.0303 10.1344 23.8248 10.3399 23.8248 10.5915V12.7316H21.6864C21.4331 12.7316 21.2275 12.9354 21.2275 13.1887V15.2969C21.2275 15.5502 21.433 15.7558 21.6864 15.7558H23.8248V17.8924C23.8248 18.1457 24.0303 18.3494 24.2818 18.3494H26.3918C26.6434 18.3494 26.8489 18.1457 26.8489 17.8924V15.7558H28.9854C29.2387 15.7558 29.4443 15.5503 29.4443 15.2969V13.1887C29.4443 12.9354 29.2387 12.7316 28.9854 12.7316Z" fill="var(--fill-0, white)"/>
</g>
</svg>
