<svg preserveAspectRatio="none" width="100%" height="100%" overflow="visible" style="display: block;" viewBox="0 0 20 20" fill="none" xmlns="http://www.w3.org/2000/svg">
<g id="mdi:instagram">
<path id="Vector" d="M6.5 1.66667H13.5C16.1667 1.66667 18.3333 3.83333 18.3333 6.5V13.5C18.3333 14.7819 17.8241 16.0113 16.9177 16.9177C16.0113 17.8241 14.7819 18.3333 13.5 18.3333H6.5C3.83333 18.3333 1.66667 16.1667 1.66667 13.5V6.5C1.66667 5.21812 2.17589 3.98874 3.08232 3.08232C3.98874 2.17589 5.21812 1.66667 6.5 1.66667ZM6.33333 3.33333C5.53768 3.33333 4.77462 3.6494 4.21201 4.21201C3.6494 4.77462 3.33333 5.53768 3.33333 6.33333V13.6667C3.33333 15.325 4.675 16.6667 6.33333 16.6667H13.6667C14.4623 16.6667 15.2254 16.3506 15.788 15.788C16.3506 15.2254 16.6667 14.4623 16.6667 13.6667V6.33333C16.6667 4.675 15.325 3.33333 13.6667 3.33333H6.33333ZM14.375 4.58333C14.6513 4.58333 14.9162 4.69308 15.1116 4.88843C15.3069 5.08378 15.4167 5.34873 15.4167 5.625C15.4167 5.90127 15.3069 6.16622 15.1116 6.36157C14.9162 6.55692 14.6513 6.66667 14.375 6.66667C14.0987 6.66667 13.8338 6.55692 13.6384 6.36157C13.4431 6.16622 13.3333 5.90127 13.3333 5.625C13.3333 5.34873 13.4431 5.08378 13.6384 4.88843C13.8338 4.69308 14.0987 4.58333 14.375 4.58333ZM10 5.83333C11.1051 5.83333 12.1649 6.27232 12.9463 7.05372C13.7277 7.83512 14.1667 8.89493 14.1667 10C14.1667 11.1051 13.7277 12.1649 12.9463 12.9463C12.1649 13.7277 11.1051 14.1667 10 14.1667C8.89493 14.1667 7.83512 13.7277 7.05372 12.9463C6.27232 12.1649 5.83333 11.1051 5.83333 10C5.83333 8.89493 6.27232 7.83512 7.05372 7.05372C7.83512 6.27232 8.89493 5.83333 10 5.83333ZM10 7.5C9.33696 7.5 8.70107 7.76339 8.23223 8.23223C7.76339 8.70107 7.5 9.33696 7.5 10C7.5 10.663 7.76339 11.2989 8.23223 11.7678C8.70107 12.2366 9.33696 12.5 10 12.5C10.663 12.5 11.2989 12.2366 11.7678 11.7678C12.2366 11.2989 12.5 10.663 12.5 10C12.5 9.33696 12.2366 8.70107 11.7678 8.23223C11.2989 7.76339 10.663 7.5 10 7.5Z" fill="var(--fill-0, #666666)"/>
</g>
</svg>
