<svg preserveAspectRatio="none" width="100%" height="100%" overflow="visible" style="display: block;" viewBox="0 0 15 15" fill="none" xmlns="http://www.w3.org/2000/svg">
<g id="fluent:live-24-regular">
<path id="Vector" d="M3.7439 3.08071C3.83168 3.1686 3.88099 3.28774 3.88099 3.41196C3.88099 3.53618 3.83168 3.65532 3.7439 3.74321C3.25057 4.23652 2.85924 4.82218 2.59225 5.46673C2.32526 6.11128 2.18785 6.80211 2.18785 7.49977C2.18785 8.19744 2.32526 8.88826 2.59225 9.53282C2.85924 10.1774 3.25057 10.763 3.7439 11.2563C3.82924 11.3448 3.87644 11.4632 3.87531 11.5861C3.87419 11.709 3.82483 11.8266 3.73788 11.9134C3.65093 12.0003 3.53334 12.0496 3.41043 12.0506C3.28753 12.0516 3.16914 12.0043 3.08077 11.9188C0.640149 9.47821 0.640149 5.52134 3.08077 3.08071C3.16866 2.99293 3.2878 2.94362 3.41202 2.94362C3.53624 2.94362 3.65601 2.99293 3.7439 3.08071ZM11.9189 3.08071C14.3595 5.52134 14.3595 9.47884 11.9189 11.9195C11.83 12.0023 11.7125 12.0473 11.5911 12.0452C11.4696 12.0431 11.3538 11.9939 11.2679 11.908C11.182 11.8221 11.1328 11.7062 11.1307 11.5848C11.1285 11.4633 11.1736 11.3458 11.2564 11.257C11.7498 10.7636 12.1412 10.1779 12.4083 9.53333C12.6753 8.88872 12.8128 8.19782 12.8128 7.50009C12.8128 6.80235 12.6753 6.11145 12.4083 5.46684C12.1412 4.82223 11.7498 4.23654 11.2564 3.74321C11.2103 3.7003 11.1734 3.64855 11.1478 3.59105C11.1222 3.53355 11.1084 3.47148 11.1073 3.40854C11.1062 3.3456 11.1177 3.28308 11.1413 3.22471C11.1649 3.16635 11.2 3.11332 11.2445 3.06881C11.289 3.0243 11.342 2.98921 11.4004 2.96563C11.4588 2.94206 11.5213 2.93048 11.5842 2.93159C11.6472 2.9327 11.7092 2.94648 11.7667 2.9721C11.8242 2.99772 11.876 3.03466 11.9189 3.08071ZM5.5114 4.84821C5.59918 4.9361 5.64849 5.05524 5.64849 5.17946C5.64849 5.30368 5.59918 5.42282 5.5114 5.51071C5.25014 5.77189 5.04289 6.08198 4.90149 6.42326C4.76009 6.76455 4.68731 7.13035 4.68731 7.49977C4.68731 7.86919 4.76009 8.235 4.90149 8.57628C5.04289 8.91757 5.25014 9.22766 5.5114 9.48884C5.5942 9.5777 5.63928 9.69523 5.63713 9.81666C5.63499 9.9381 5.5858 10.054 5.49991 10.1398C5.41403 10.2257 5.29816 10.2749 5.17673 10.2771C5.05529 10.2792 4.93776 10.2341 4.8489 10.1513C4.14569 9.44808 3.75064 8.49429 3.75064 7.49977C3.75064 6.50526 4.14569 5.55147 4.8489 4.84821C4.93679 4.76043 5.05593 4.71112 5.18015 4.71112C5.30437 4.71112 5.42351 4.76043 5.5114 4.84821ZM10.152 4.84821C10.8552 5.55147 11.2503 6.50526 11.2503 7.49977C11.2503 8.49429 10.8552 9.44808 10.152 10.1513C10.1088 10.1961 10.0571 10.2319 9.99992 10.2565C9.94274 10.281 9.88124 10.294 9.819 10.2946C9.75676 10.2951 9.69503 10.2833 9.63741 10.2598C9.57979 10.2362 9.52744 10.2015 9.48341 10.1575C9.43937 10.1135 9.40454 10.0611 9.38095 10.0036C9.35735 9.94596 9.34546 9.88424 9.34597 9.822C9.34648 9.75976 9.35939 9.69824 9.38393 9.64104C9.40846 9.58384 9.44415 9.5321 9.4889 9.48884C9.75007 9.22767 9.95724 8.91762 10.0986 8.57639C10.2399 8.23516 10.3127 7.86943 10.3127 7.50009C10.3127 7.13074 10.2399 6.76501 10.0986 6.42378C9.95724 6.08255 9.75007 5.7725 9.4889 5.51134C9.4061 5.42248 9.36102 5.30495 9.36317 5.18351C9.36531 5.06207 9.4145 4.94621 9.50039 4.86032C9.58627 4.77444 9.70214 4.72524 9.82357 4.7231C9.94501 4.72096 10.0625 4.76604 10.1514 4.84884M7.50015 6.56259C7.74879 6.56259 7.98725 6.66136 8.16306 6.83717C8.33888 7.01299 8.43765 7.25145 8.43765 7.50009C8.43765 7.74873 8.33888 7.98718 8.16306 8.163C7.98725 8.33881 7.74879 8.43759 7.50015 8.43759C7.25151 8.43759 7.01305 8.33881 6.83724 8.163C6.66142 7.98718 6.56265 7.74873 6.56265 7.50009C6.56265 7.25145 6.66142 7.01299 6.83724 6.83717C7.01305 6.66136 7.25151 6.56259 7.50015 6.56259Z" fill="var(--fill-0, white)"/>
</g>
</svg>
