<svg preserveAspectRatio="none" width="100%" height="100%" overflow="visible" style="display: block;" viewBox="0 0 32 32" fill="none" xmlns="http://www.w3.org/2000/svg">
<path id="Vector" d="M15.9992 26.808L8.24337 31.6999C7.90075 31.9282 7.54255 32.0261 7.16877 31.9935C6.795 31.9608 6.46794 31.8304 6.18761 31.6021C5.90728 31.3738 5.68924 31.0888 5.53351 30.747C5.37777 30.4052 5.34662 30.0217 5.44006 29.5964L7.49582 20.3506L0.62771 14.1378C0.316231 13.8443 0.121868 13.5097 0.0446209 13.1339C-0.0326259 12.7582 -0.00957661 12.3917 0.113769 12.0342C0.237115 11.6768 0.424002 11.3833 0.674431 11.1537C0.924861 10.9241 1.26749 10.7773 1.70231 10.7134L10.7664 9.88177L14.2705 1.17407C14.4262 0.782715 14.6679 0.489196 14.9956 0.293518C15.3233 0.097839 15.6578 0 15.9992 0C16.3406 0 16.6751 0.097839 17.0028 0.293518C17.3305 0.489196 17.5722 0.782715 17.7279 1.17407L21.2321 9.88177L30.2961 10.7134C30.7322 10.7786 31.0748 10.9254 31.324 11.1537C31.5732 11.382 31.76 11.6755 31.8846 12.0342C32.0092 12.393 32.0329 12.7602 31.9557 13.1359C31.8784 13.5116 31.6834 13.8456 31.3707 14.1378L24.5026 20.3506L26.5583 29.5964C26.6518 30.0204 26.6206 30.4039 26.4649 30.747C26.3092 31.0901 26.0911 31.3751 25.8108 31.6021C25.5305 31.8291 25.2034 31.9595 24.8296 31.9935C24.4559 32.0274 24.0977 31.9295 23.755 31.6999L15.9992 26.808Z" fill="var(--fill-0, #8BCE83)"/>
</svg>
