<svg preserveAspectRatio="none" width="100%" height="100%" overflow="visible" style="display: block;" viewBox="0 0 24 24" fill="none" xmlns="http://www.w3.org/2000/svg">
<g id="material-symbols-light:mail-rounded">
<path id="Vector" d="M4.616 19C4.15533 19 3.771 18.846 3.463 18.538C3.155 18.23 3.00067 17.8453 3 17.384V6.616C3 6.15533 3.15433 5.771 3.463 5.463C3.77167 5.155 4.15567 5.00067 4.615 5H19.385C19.845 5 20.229 5.15433 20.537 5.463C20.845 5.77167 20.9993 6.156 21 6.616V17.385C21 17.845 20.8457 18.2293 20.537 18.538C20.2283 18.8467 19.8443 19.0007 19.385 19H4.616ZM12.234 11.922C12.306 11.8967 12.3773 11.8657 12.448 11.829L19.677 7.096C19.7717 7.03867 19.8333 6.96033 19.862 6.861C19.8907 6.76167 19.8853 6.66267 19.846 6.564C19.8207 6.43533 19.7367 6.342 19.594 6.284C19.452 6.22667 19.3143 6.23833 19.181 6.319L12 11L4.82 6.32C4.68667 6.23867 4.552 6.22133 4.416 6.268C4.28 6.31467 4.19267 6.40667 4.154 6.544C4.11533 6.64667 4.11033 6.751 4.139 6.857C4.16767 6.963 4.229 7.043 4.323 7.097L11.552 11.829C11.6227 11.8657 11.694 11.8967 11.766 11.922C11.8387 11.9467 11.9167 11.959 12 11.959C12.0833 11.959 12.1613 11.9467 12.234 11.922Z" fill="var(--fill-0, #666666)"/>
</g>
</svg>
