<svg preserveAspectRatio="none" width="100%" height="100%" overflow="visible" style="display: block;" viewBox="0 0 32.7709 32.6182" fill="none" xmlns="http://www.w3.org/2000/svg">
<g id="Solid">
<path id="Vector" d="M4.39501 9.02776C3.20554 7.1551 1.58709 7.02787 0.500416 7.60932C0.428802 7.64103 0.36172 7.68212 0.300932 7.73151C0.150631 7.86323 0.0494948 8.04206 0.0140758 8.23875C-0.0213431 8.43544 0.0110534 8.63832 0.105963 8.8142L2.22565 12.8196C2.30872 12.9765 2.43961 13.103 2.59936 13.1806C2.75911 13.2582 2.93942 13.2829 3.11417 13.2512C3.22832 13.2309 3.33692 13.1868 3.43292 13.1218C4.51826 12.5404 5.57784 10.8901 4.39501 9.02776Z" fill="var(--fill-0, white)"/>
<path id="Vector_2" d="M32.2017 25.4298C31.3884 24.5416 27.447 21.6094 25.8171 20.477C25.5807 20.3097 25.3305 20.1627 25.0694 20.0374C26.6897 18.513 28.8325 15.8009 28.8325 12.1186C28.8471 10.6656 28.5559 9.22585 27.978 7.89272C27.4 6.5596 26.5481 5.36292 25.4777 4.38038C24.2955 3.31593 22.9075 2.50553 21.3994 1.99936C19.8913 1.4932 18.2954 1.30206 16.7104 1.43779L16.2028 0.46082C16.1514 0.360948 16.0807 0.272242 15.9948 0.199804C15.9089 0.127367 15.8095 0.0726295 15.7024 0.0387417C15.5655 -0.00373607 15.4201 -0.0114082 15.2795 0.0164193C15.1389 0.0442469 15.0074 0.106696 14.897 0.198117C14.7467 0.329835 14.6456 0.508673 14.6102 0.705359C14.5748 0.902045 14.6071 1.10493 14.7021 1.2808L16.8228 5.28537C16.9058 5.44235 17.0366 5.56883 17.1963 5.64644C17.3561 5.72405 17.5363 5.74877 17.7111 5.71701C17.8399 5.69366 17.9614 5.6404 18.0658 5.56152C18.1703 5.48263 18.2548 5.38032 18.3125 5.26282C18.3702 5.14533 18.3995 5.01592 18.3981 4.88503C18.3966 4.75414 18.3645 4.62541 18.3042 4.50921L17.519 2.99515C20.0546 2.94278 22.5151 3.85766 24.4006 5.55391C25.3135 6.38298 26.0389 7.39736 26.5283 8.52926C27.0178 9.66116 27.26 10.8845 27.2388 12.1175C27.2388 15.9534 24.4213 18.6022 23.0929 19.6368C23.0642 19.6352 23.0398 19.6331 23.01 19.6315C22.6079 19.6092 22.0556 19.5747 21.424 19.5338V16.4151H22.5778C22.6859 16.417 22.7933 16.3974 22.8937 16.3574C22.9941 16.3174 23.0855 16.2578 23.1626 16.1821C23.2397 16.1063 23.301 16.016 23.3428 15.9163C23.3846 15.8167 23.4061 15.7097 23.4061 15.6016C23.4061 15.4935 23.3846 15.3865 23.3428 15.2868C23.301 15.1872 23.2397 15.0968 23.1626 15.0211C23.0855 14.9454 22.9941 14.8858 22.8937 14.8458C22.7933 14.8057 22.6859 14.7861 22.5778 14.7881H13.8465C13.6333 14.792 13.4301 14.8794 13.2807 15.0315C13.1313 15.1836 13.0476 15.3883 13.0476 15.6016C13.0476 15.8148 13.1313 16.0195 13.2807 16.1717C13.4301 16.3238 13.6333 16.4112 13.8465 16.4151H18.3988V19.3313C16.3072 19.1876 14.3937 19.0508 14.3937 19.0508C14.0706 19.0366 13.7615 18.9151 13.5152 18.7055C12.381 17.7432 8.63704 14.3004 7.2024 13.7285C5.58209 13.0825 4.15807 14.2954 3.59468 14.8957C3.51545 14.9765 3.44705 15.0673 3.39121 15.1658C3.31146 15.3462 3.29528 15.5483 3.34532 15.7391C3.39536 15.9299 3.50865 16.0981 3.66667 16.2161L11.7066 22.322C12.3189 22.7884 13.0534 23.0671 13.821 23.1245C14.616 23.1856 15.7311 23.2647 16.9288 23.3473V30.6255H10.0361C9.54857 30.6254 9.07224 30.7715 8.66856 31.0449C8.26487 31.3182 7.95237 31.7062 7.77137 32.1589C7.75094 32.2097 7.74328 32.2647 7.74907 32.3191C7.75486 32.3736 7.77392 32.4257 7.80457 32.4711C7.83523 32.5164 7.87654 32.5535 7.9249 32.5792C7.97325 32.6048 8.02715 32.6182 8.08189 32.6182H23.7838C23.8384 32.6182 23.8923 32.6048 23.9406 32.5792C23.9889 32.5536 24.0301 32.5165 24.0608 32.4712C24.0914 32.4259 24.1105 32.3739 24.1163 32.3195C24.1222 32.2651 24.1146 32.2102 24.0943 32.1594C23.9132 31.7068 23.6007 31.3187 23.197 31.0454C22.7932 30.772 22.3169 30.626 21.8293 30.626H21.4333V23.6501L22.8145 23.7413C23.3668 23.7776 23.8956 23.9777 24.3336 24.3161L30.5785 29.1393C30.6661 29.2073 30.7664 29.2574 30.8734 29.2867C30.9804 29.3159 31.0922 29.3238 31.2023 29.3099C31.3124 29.2959 31.4187 29.2604 31.515 29.2054C31.6114 29.1504 31.696 29.0769 31.7639 28.9892C31.8525 28.8718 31.9277 28.745 31.9881 28.611C32.4777 27.6218 33.3556 26.6894 32.2017 25.4298Z" fill="var(--fill-0, white)"/>
</g>
</svg>
