<svg preserveAspectRatio="none" width="100%" height="100%" overflow="visible" style="display: block;" viewBox="0 0 34 34" fill="none" xmlns="http://www.w3.org/2000/svg">
<g id="fi_15595382">
<path id="Vector" fill-rule="evenodd" clip-rule="evenodd" d="M15.6734 22.2553L11.7353 23.8186L11.5209 25.491L10.6587 32.2166H9.22257L10.4194 22.8815L13.9458 21.7025L15.1046 22.0956C15.2864 22.1573 15.4768 22.2104 15.6734 22.2554V22.2553ZM29.5676 1.78347H26.7001C25.0296 1.78347 23.5963 2.19977 22.1857 3.09439C20.8939 3.91358 19.0486 4.42624 17 4.42624C14.9514 4.42624 13.1061 3.91358 11.8143 3.09439C10.4036 2.19977 8.97036 1.78347 7.29991 1.78347H4.43235C2.39627 1.78347 0.730469 3.44927 0.730469 5.48535V9.1873C0.730469 10.6224 1.55809 11.8734 2.75958 12.487V11.6959C2.75958 9.60639 4.45918 7.90639 6.54932 7.90639C7.96888 7.90639 9.20809 8.69078 9.85728 9.84851C10.5285 8.55418 11.8816 7.66759 13.4374 7.66759C14.9816 7.66759 16.3246 8.5411 16.9999 9.81975C17.6753 8.5411 19.0182 7.66759 20.5624 7.66759C22.1182 7.66759 23.4714 8.55418 24.1427 9.84851C24.7918 8.69071 26.0311 7.90639 27.4506 7.90639C29.5408 7.90639 31.2404 9.60632 31.2404 11.6959V12.487C32.4418 11.8734 33.2695 10.6224 33.2695 9.1873V5.48535C33.2695 3.44927 31.6037 1.78347 29.5676 1.78347H29.5676ZM29.8982 17.2103C29.6415 17.2103 29.4334 17.4184 29.4334 17.6751V18.4221C29.4334 18.6788 29.6415 18.8869 29.8982 18.8869C30.1549 18.8869 30.3631 18.6788 30.3631 18.4221V17.6751C30.3631 17.4184 30.1549 17.2103 29.8982 17.2103ZM31.5418 18.8539H30.7948C30.538 18.8539 30.3299 19.062 30.3299 19.3187C30.3299 19.5754 30.538 19.7835 30.7948 19.7835H31.5418C31.7985 19.7835 32.0066 19.5754 32.0066 19.3187C32.0066 19.062 31.7985 18.8539 31.5418 18.8539ZM29.0016 18.8539H28.2546C27.9979 18.8539 27.7898 19.062 27.7898 19.3187C27.7898 19.5754 27.9979 19.7835 28.2546 19.7835H29.0016C29.2583 19.7835 29.4664 19.5754 29.4664 19.3187C29.4664 19.062 29.2583 18.8539 29.0016 18.8539ZM29.8982 19.7505C29.6415 19.7505 29.4334 19.9586 29.4334 20.2153V20.9623C29.4334 21.2191 29.6415 21.4272 29.8982 21.4272C30.1549 21.4272 30.3631 21.2191 30.3631 20.9623V20.2153C30.3631 19.9586 30.1549 19.7505 29.8982 19.7505ZM17.6961 26.2331C17.9528 26.2331 18.1609 26.025 18.1609 25.7683V25.0213C18.1609 24.7645 17.9528 24.5564 17.6961 24.5564C17.4393 24.5564 17.2312 24.7645 17.2312 25.0213V25.7683C17.2312 26.025 17.4393 26.2331 17.6961 26.2331ZM17.6961 27.0967C17.4393 27.0967 17.2312 27.3048 17.2312 27.5615V28.3084C17.2312 28.5652 17.4393 28.7733 17.6961 28.7733C17.9528 28.7733 18.1609 28.5652 18.1609 28.3084V27.5615C18.1609 27.3048 17.9528 27.0967 17.6961 27.0967ZM19.3396 26.2001H18.5926C18.3359 26.2001 18.1278 26.4082 18.1278 26.6649C18.1278 26.9216 18.3359 27.1297 18.5926 27.1297H19.3396C19.5964 27.1297 19.8045 26.9216 19.8045 26.6649C19.8045 26.4082 19.5964 26.2001 19.3396 26.2001ZM16.7995 26.2001H16.0524C15.7957 26.2001 15.5876 26.4082 15.5876 26.6649C15.5876 26.9216 15.7957 27.1297 16.0524 27.1297H16.7995C17.0562 27.1297 17.2643 26.9216 17.2643 26.6649C17.2643 26.4082 17.0562 26.2001 16.7995 26.2001ZM16.5359 13.6378V11.6959C16.5359 9.98736 15.1467 8.59755 13.4375 8.59755C11.7283 8.59755 10.3391 9.98736 10.3391 11.6959V14.4784C10.3391 14.6497 10.4128 14.8055 10.5664 14.9544C11.0533 15.423 12.1955 15.7172 13.4646 15.7122C14.078 14.5902 15.2096 13.7907 16.5359 13.6378ZM9.40771 14.2921V11.6959C9.40771 10.1192 8.12421 8.83634 6.54938 8.83634C4.97456 8.83634 3.68787 10.1192 3.68787 11.6959V14.2921C3.68787 14.9095 4.97137 15.412 6.54938 15.412C8.12739 15.412 9.40771 14.9095 9.40771 14.2921ZM23.6609 14.4784V11.6959C23.6609 9.9873 22.2717 8.59748 20.5625 8.59748C18.8533 8.59748 17.4641 9.9873 17.4641 11.6959V13.6378C18.7904 13.7906 19.9221 14.59 20.5354 15.7121C21.8042 15.7171 22.9437 15.423 23.4336 14.9543C23.5872 14.8055 23.6608 14.6495 23.6608 14.4784H23.6609ZM27.4506 8.83628C25.8758 8.83628 24.5923 10.1192 24.5923 11.6959V14.292C24.5923 14.9095 25.8758 15.412 27.4506 15.412C29.0254 15.412 30.3121 14.9094 30.3121 14.292V11.6959C30.3121 10.1191 29.0286 8.83628 27.4506 8.83628ZM16.9999 14.5404C15.2907 14.5404 13.9016 15.9305 13.9016 17.6392V17.9859H17.4292C18.8287 17.9859 19.1504 19.9624 17.8231 20.4061L14.97 21.36C15.9435 21.6903 17.4097 21.7702 18.6291 21.474C18.9749 21.3904 20.0983 21.0672 20.0983 20.4212V17.6391C20.0983 15.9305 18.7092 14.5404 16.9999 14.5404V14.5404ZM17.5283 19.5244C17.8622 19.4128 17.7812 18.9156 17.4292 18.9156H8.54609C7.68553 18.9156 6.95765 19.474 6.73492 20.3052L3.5433 32.2165H8.28518L9.57133 22.1846L17.5283 19.5244V19.5244ZM24.4145 20.5561C24.2426 22.2879 22.8726 23.6579 21.1408 23.8298C22.8726 24.0017 24.2426 25.3717 24.4145 27.1035C24.5864 25.3717 25.9564 24.0017 27.6882 23.8298C25.9564 23.6579 24.5864 22.2879 24.4145 20.5561Z" fill="var(--fill-0, white)"/>
</g>
</svg>
