<svg preserveAspectRatio="none" width="100%" height="100%" overflow="visible" style="display: block;" viewBox="0 0 20 20" fill="none" xmlns="http://www.w3.org/2000/svg">
<g id="mdi:youtube">
<path id="Vector" d="M8.33333 12.5L12.6583 10L8.33333 7.5V12.5ZM17.9667 5.975C18.075 6.36667 18.15 6.89167 18.2 7.55833C18.2583 8.225 18.2833 8.8 18.2833 9.3L18.3333 10C18.3333 11.825 18.2 13.1667 17.9667 14.025C17.7583 14.775 17.275 15.2583 16.525 15.4667C16.1333 15.575 15.4167 15.65 14.3167 15.7C13.2333 15.7583 12.2417 15.7833 11.325 15.7833L10 15.8333C6.50833 15.8333 4.33333 15.7 3.475 15.4667C2.725 15.2583 2.24167 14.775 2.03333 14.025C1.925 13.6333 1.85 13.1083 1.8 12.4417C1.74167 11.775 1.71667 11.2 1.71667 10.7L1.66667 10C1.66667 8.175 1.8 6.83333 2.03333 5.975C2.24167 5.225 2.725 4.74167 3.475 4.53333C3.86667 4.425 4.58333 4.35 5.68333 4.3C6.76667 4.24167 7.75833 4.21667 8.675 4.21667L10 4.16667C13.4917 4.16667 15.6667 4.3 16.525 4.53333C17.275 4.74167 17.7583 5.225 17.9667 5.975Z" fill="var(--fill-0, #666666)"/>
</g>
</svg>
